<svg width="400" height="400" viewBox="0 0 400 400" fill="none" xmlns="http://www.w3.org/2000/svg">
<g clip-path="url(#clip0_1122_2)">
<rect x="80" y="80" width="240" height="240" rx="40" fill="#E73C34"/>
<path d="M320.012 219.465L320 281.5C320 293.215 321.141 300.011 310.703 310.576C300.461 320.942 288.932 319.846 278.805 320C284.245 318.651 288.687 314.763 289.994 309.545C290.033 309.376 290.072 309.207 290.11 309.039C290.11 309.011 290.13 308.973 290.139 308.945C290.207 308.683 290.265 308.402 290.323 308.121C290.401 307.755 290.488 307.399 290.555 307.024C290.633 306.64 290.701 306.256 290.768 305.863C290.836 305.488 290.904 305.123 290.962 304.748C291.02 304.354 291.068 303.961 291.127 303.567C291.185 303.183 291.223 302.809 291.272 302.415C291.31 302.022 291.349 301.619 291.378 301.216C291.407 300.822 291.456 300.438 291.475 300.035C291.504 299.623 291.514 299.22 291.533 298.799C291.543 298.396 291.562 298.002 291.572 297.6C291.572 297.187 291.572 296.766 291.572 296.344C291.572 295.932 291.572 295.529 291.572 295.107C291.562 294.686 291.533 294.255 291.514 293.833C291.494 293.412 291.475 292.99 291.436 292.559C291.407 292.128 291.359 291.697 291.31 291.257C291.272 290.835 291.233 290.404 291.185 289.973C291.127 289.533 291.059 289.093 291.001 288.643C290.943 288.203 290.875 287.772 290.807 287.331C290.73 286.882 290.643 286.423 290.555 285.973C290.478 285.533 290.391 285.092 290.304 284.643C290.207 284.184 290.091 283.715 289.975 283.256C289.868 282.806 289.762 282.357 289.646 281.907C289.52 281.439 289.384 280.961 289.249 280.492C289.123 280.033 288.997 279.584 288.852 279.115C288.707 278.647 288.533 278.169 288.378 277.691C288.213 277.223 288.068 276.754 287.904 276.286C287.729 275.799 287.536 275.302 287.342 274.815C287.158 274.347 286.984 273.869 286.8 273.4C286.597 272.904 286.374 272.398 286.161 271.901C285.948 271.414 285.755 270.936 285.532 270.458C285.31 269.953 285.058 269.456 284.816 268.95C284.584 268.463 284.351 267.966 284.1 267.47C283.838 266.964 283.558 266.449 283.287 265.933C283.025 265.437 282.774 264.94 282.493 264.444C282.212 263.919 281.893 263.395 281.593 262.879C281.303 262.373 281.022 261.877 280.722 261.362C280.402 260.837 280.054 260.303 279.715 259.769C279.396 259.263 279.086 258.748 278.747 258.242C278.389 257.698 278.002 257.146 277.634 256.602C277.296 256.087 276.957 255.581 276.589 255.066C276.202 254.513 275.776 253.951 275.379 253.398C275.002 252.883 274.634 252.368 274.237 251.843C273.811 251.281 273.366 250.709 272.921 250.147C272.514 249.623 272.117 249.107 271.691 248.583C271.227 248.002 270.724 247.421 270.249 246.84C269.814 246.315 269.388 245.8 268.933 245.276C268.43 244.676 267.888 244.086 267.355 243.486C266.9 242.961 266.455 242.446 265.971 241.922C265.42 241.322 264.839 240.704 264.268 240.095C263.774 239.57 263.3 239.045 262.797 238.521C262.206 237.912 261.587 237.293 260.967 236.675C260.445 236.141 259.941 235.616 259.39 235.073C258.761 234.445 258.083 233.818 257.425 233.19C256.873 232.656 256.331 232.131 255.76 231.588C255.073 230.941 254.337 230.286 253.621 229.63C253.05 229.105 252.489 228.581 251.908 228.056C251.143 227.372 250.34 226.688 249.546 225.995C248.966 225.489 248.404 224.992 247.814 224.477C246.981 223.774 246.12 223.062 245.259 222.36C244.659 221.854 244.078 221.367 243.468 220.861C242.452 220.027 241.387 219.193 240.322 218.359C239.838 217.975 239.384 217.6 238.89 217.216C237.332 215.998 235.715 214.771 234.07 213.534C230.76 211.052 225.785 212.148 224.043 215.736L200.93 263.685L185.511 249.819L190.96 182.44C190.96 182.44 152.41 149.837 161.343 141.621C170.277 133.395 209.515 159.159 209.515 159.159L281.719 140.178L299.566 151.664L251.259 183.845C249.295 185.157 249.788 187.949 252.092 188.642C277.489 196.212 299.712 206.714 318.856 218.931C319.214 219.156 319.592 219.334 319.969 219.465H320.012Z" fill="white"/>
</g>
<defs>
<clipPath id="clip0_1122_2">
<rect x="80" y="80" width="240" height="240" rx="40" fill="white"/>
</clipPath>
</defs>
</svg>
