<svg width="200" height="200" viewBox="0 0 200 200" fill="none" xmlns="http://www.w3.org/2000/svg">
<path fill-rule="evenodd" clip-rule="evenodd" d="M16 32C24.8366 32 32 24.8366 32 16C32 7.16344 24.8366 0 16 0C7.16344 0 0 7.16344 0 16C0 24.8366 7.16344 32 16 32ZM86.2529 44.3926C90.0471 35.2325 92 25.4148 92 15.5H58.025C58.025 20.9531 56.9509 26.3529 54.8641 31.3909C52.7773 36.429 49.7186 41.0067 45.8626 44.8626C42.0067 48.7186 37.429 51.7773 32.3909 53.8641C27.3529 55.9509 21.9531 57.025 16.5 57.025L16.5 91C26.4148 91 36.2325 89.0471 45.3926 85.2529C54.5527 81.4587 62.8757 75.8974 69.8866 68.8866C76.8974 61.8757 82.4587 53.5527 86.2529 44.3926Z" fill="#20A345"/>
<path fill-rule="evenodd" clip-rule="evenodd" d="M33 184C33 175.163 25.8366 168 17 168C8.16344 168 1 175.163 1 184C1 192.837 8.16344 200 17 200C25.8366 200 33 192.837 33 184ZM45.3926 113.747C36.2325 109.953 26.4148 108 16.5 108L16.5 141.975C21.9531 141.975 27.3529 143.049 32.3909 145.136C37.429 147.223 42.0067 150.281 45.8626 154.137C49.7186 157.993 52.7773 162.571 54.8641 167.609C56.9509 172.647 58.025 178.047 58.025 183.5L92 183.5C92 173.585 90.0471 163.767 86.2529 154.607C82.4587 145.447 76.8974 137.124 69.8866 130.113C62.8757 123.103 54.5527 117.541 45.3926 113.747Z" fill="#FFC211"/>
<path fill-rule="evenodd" clip-rule="evenodd" d="M167 16C167 24.8366 174.163 32 183 32C191.837 32 199 24.8366 199 16C199 7.16344 191.837 0 183 0C174.163 0 167 7.16344 167 16ZM154.607 86.2529C163.767 90.0471 173.585 92 183.5 92V58.025C178.047 58.025 172.647 56.9509 167.609 54.8641C162.571 52.7773 157.993 49.7186 154.137 45.8626C150.281 42.0067 147.223 37.429 145.136 32.3909C143.049 27.3529 141.975 21.9531 141.975 16.5L108 16.5C108 26.4148 109.953 36.2325 113.747 45.3926C117.541 54.5527 123.103 62.8757 130.113 69.8866C137.124 76.8974 145.447 82.4587 154.607 86.2529Z" fill="#21325D"/>
<path fill-rule="evenodd" clip-rule="evenodd" d="M184 167C175.163 167 168 174.163 168 183C168 191.837 175.163 199 184 199C192.837 199 200 191.837 200 183C200 174.163 192.837 167 184 167ZM113.747 154.607C109.953 163.767 108 173.585 108 183.5H141.975C141.975 178.047 143.049 172.647 145.136 167.609C147.223 162.571 150.281 157.993 154.137 154.137C157.993 150.281 162.571 147.223 167.609 145.136C172.647 143.049 178.047 141.975 183.5 141.975L183.5 108C173.585 108 163.767 109.953 154.607 113.747C145.447 117.541 137.124 123.103 130.113 130.113C123.103 137.124 117.541 145.447 113.747 154.607Z" fill="#F94E54"/>
</svg>
