<svg width="746" height="397" viewBox="0 0 746 397" fill="none" xmlns="http://www.w3.org/2000/svg">
<rect width="746" height="397" fill="white"/>
<path fill-rule="evenodd" clip-rule="evenodd" d="M64 80C72.8366 80 80 72.8366 80 64C80 55.1634 72.8366 48 64 48C55.1634 48 48 55.1634 48 64C48 72.8366 55.1634 80 64 80ZM134.253 92.3926C138.047 83.2325 140 73.4148 140 63.5H106.025C106.025 68.9531 104.951 74.3529 102.864 79.3909C100.777 84.429 97.7186 89.0067 93.8626 92.8626C90.0067 96.7186 85.429 99.7773 80.3909 101.864C75.3529 103.951 69.9531 105.025 64.5 105.025L64.5 139C74.4148 139 84.2325 137.047 93.3926 133.253C102.553 129.459 110.876 123.897 117.887 116.887C124.897 109.876 130.459 101.553 134.253 92.3926Z" fill="#20A345"/>
<path fill-rule="evenodd" clip-rule="evenodd" d="M81 232C81 223.163 73.8366 216 65 216C56.1634 216 49 223.163 49 232C49 240.837 56.1634 248 65 248C73.8366 248 81 240.837 81 232ZM93.3926 161.747C84.2325 157.953 74.4148 156 64.5 156V189.975C69.9531 189.975 75.3529 191.049 80.3909 193.136C85.429 195.223 90.0067 198.281 93.8626 202.137C97.7186 205.993 100.777 210.571 102.864 215.609C104.951 220.647 106.025 226.047 106.025 231.5L140 231.5C140 221.585 138.047 211.767 134.253 202.607C130.459 193.447 124.897 185.124 117.887 178.113C110.876 171.103 102.553 165.541 93.3926 161.747Z" fill="#FFC211"/>
<path fill-rule="evenodd" clip-rule="evenodd" d="M215 64C215 72.8366 222.163 80 231 80C239.837 80 247 72.8366 247 64C247 55.1634 239.837 48 231 48C222.163 48 215 55.1634 215 64ZM202.607 134.253C211.767 138.047 221.585 140 231.5 140V106.025C226.047 106.025 220.647 104.951 215.609 102.864C210.571 100.777 205.993 97.7186 202.137 93.8626C198.281 90.0067 195.223 85.429 193.136 80.3909C191.049 75.3529 189.975 69.9531 189.975 64.5L156 64.5C156 74.4148 157.953 84.2325 161.747 93.3926C165.541 102.553 171.103 110.876 178.113 117.887C185.124 124.897 193.447 130.459 202.607 134.253Z" fill="#0072AE"/>
<path fill-rule="evenodd" clip-rule="evenodd" d="M232 215C223.163 215 216 222.163 216 231C216 239.837 223.163 247 232 247C240.837 247 248 239.837 248 231C248 222.163 240.837 215 232 215ZM161.747 202.607C157.953 211.767 156 221.585 156 231.5H189.975C189.975 226.047 191.049 220.647 193.136 215.609C195.223 210.571 198.281 205.993 202.137 202.137C205.993 198.281 210.571 195.223 215.609 193.136C220.647 191.049 226.047 189.975 231.5 189.975L231.5 156C221.585 156 211.767 157.953 202.607 161.747C193.447 165.541 185.124 171.103 178.113 178.113C171.103 185.124 165.541 193.447 161.747 202.607Z" fill="#F94E54"/>
<rect x="280" y="48" width="8" height="200" fill="#21325D"/>
<path d="M357.56 165.44C350.84 165.44 344.4 164.56 338.24 162.8C332.08 160.96 327.12 158.6 323.36 155.72L329.96 141.08C333.56 143.64 337.8 145.76 342.68 147.44C347.64 149.04 352.64 149.84 357.68 149.84C361.52 149.84 364.6 149.48 366.92 148.76C369.32 147.96 371.08 146.88 372.2 145.52C373.32 144.16 373.88 142.6 373.88 140.84C373.88 138.6 373 136.84 371.24 135.56C369.48 134.2 367.16 133.12 364.28 132.32C361.4 131.44 358.2 130.64 354.68 129.92C351.24 129.12 347.76 128.16 344.24 127.04C340.8 125.92 337.64 124.48 334.76 122.72C331.88 120.96 329.52 118.64 327.68 115.76C325.92 112.88 325.04 109.2 325.04 104.72C325.04 99.92 326.32 95.56 328.88 91.64C331.52 87.64 335.44 84.48 340.64 82.16C345.92 79.76 352.52 78.56 360.44 78.56C365.72 78.56 370.92 79.2 376.04 80.48C381.16 81.68 385.68 83.52 389.6 86L383.6 100.76C379.68 98.52 375.76 96.88 371.84 95.84C367.92 94.72 364.08 94.16 360.32 94.16C356.56 94.16 353.48 94.6 351.08 95.48C348.68 96.36 346.96 97.52 345.92 98.96C344.88 100.32 344.36 101.92 344.36 103.76C344.36 105.92 345.24 107.68 347 109.04C348.76 110.32 351.08 111.36 353.96 112.16C356.84 112.96 360 113.76 363.44 114.56C366.96 115.36 370.44 116.28 373.88 117.32C377.4 118.36 380.6 119.76 383.48 121.52C386.36 123.28 388.68 125.6 390.44 128.48C392.28 131.36 393.2 135 393.2 139.4C393.2 144.12 391.88 148.44 389.24 152.36C386.6 156.28 382.64 159.44 377.36 161.84C372.16 164.24 365.56 165.44 357.56 165.44ZM440.083 165.44C433.363 165.44 426.923 164.56 420.763 162.8C414.603 160.96 409.643 158.6 405.883 155.72L412.483 141.08C416.083 143.64 420.323 145.76 425.203 147.44C430.163 149.04 435.163 149.84 440.203 149.84C444.043 149.84 447.123 149.48 449.443 148.76C451.843 147.96 453.603 146.88 454.723 145.52C455.843 144.16 456.403 142.6 456.403 140.84C456.403 138.6 455.523 136.84 453.763 135.56C452.003 134.2 449.683 133.12 446.803 132.32C443.923 131.44 440.723 130.64 437.203 129.92C433.763 129.12 430.283 128.16 426.763 127.04C423.323 125.92 420.163 124.48 417.283 122.72C414.403 120.96 412.043 118.64 410.203 115.76C408.443 112.88 407.563 109.2 407.563 104.72C407.563 99.92 408.843 95.56 411.403 91.64C414.043 87.64 417.963 84.48 423.163 82.16C428.443 79.76 435.043 78.56 442.963 78.56C448.243 78.56 453.443 79.2 458.563 80.48C463.683 81.68 468.203 83.52 472.123 86L466.123 100.76C462.203 98.52 458.283 96.88 454.363 95.84C450.443 94.72 446.603 94.16 442.843 94.16C439.083 94.16 436.003 94.6 433.603 95.48C431.203 96.36 429.483 97.52 428.443 98.96C427.403 100.32 426.883 101.92 426.883 103.76C426.883 105.92 427.763 107.68 429.523 109.04C431.283 110.32 433.603 111.36 436.483 112.16C439.363 112.96 442.523 113.76 445.963 114.56C449.483 115.36 452.963 116.28 456.403 117.32C459.923 118.36 463.123 119.76 466.003 121.52C468.883 123.28 471.203 125.6 472.963 128.48C474.803 131.36 475.723 135 475.723 139.4C475.723 144.12 474.403 148.44 471.763 152.36C469.123 156.28 465.163 159.44 459.883 161.84C454.683 164.24 448.083 165.44 440.083 165.44ZM495.007 164V80H533.167C542.287 80 550.327 81.76 557.287 85.28C564.247 88.72 569.687 93.56 573.607 99.8C577.527 106.04 579.487 113.44 579.487 122C579.487 130.48 577.527 137.88 573.607 144.2C569.687 150.44 564.247 155.32 557.287 158.84C550.327 162.28 542.287 164 533.167 164H495.007ZM514.447 148.04H532.207C537.807 148.04 542.647 147 546.727 144.92C550.887 142.76 554.087 139.72 556.327 135.8C558.647 131.88 559.807 127.28 559.807 122C559.807 116.64 558.647 112.04 556.327 108.2C554.087 104.28 550.887 101.28 546.727 99.2C542.647 97.04 537.807 95.96 532.207 95.96H514.447V148.04ZM640.348 165.44C633.868 165.44 627.828 164.4 622.228 162.32C616.708 160.16 611.908 157.12 607.827 153.2C603.748 149.28 600.548 144.68 598.228 139.4C595.988 134.12 594.868 128.32 594.868 122C594.868 115.68 595.988 109.88 598.228 104.6C600.548 99.32 603.748 94.72 607.827 90.8C611.988 86.88 616.828 83.88 622.348 81.8C627.868 79.64 633.908 78.56 640.468 78.56C647.748 78.56 654.308 79.84 660.148 82.4C666.068 84.88 671.028 88.56 675.028 93.44L662.548 104.96C659.668 101.68 656.468 99.24 652.948 97.64C649.428 95.96 645.588 95.12 641.428 95.12C637.508 95.12 633.908 95.76 630.628 97.04C627.348 98.32 624.508 100.16 622.108 102.56C619.708 104.96 617.828 107.8 616.468 111.08C615.188 114.36 614.548 118 614.548 122C614.548 126 615.188 129.64 616.468 132.92C617.828 136.2 619.708 139.04 622.108 141.44C624.508 143.84 627.348 145.68 630.628 146.96C633.908 148.24 637.508 148.88 641.428 148.88C645.588 148.88 649.428 148.08 652.948 146.48C656.468 144.8 659.668 142.28 662.548 138.92L675.028 150.44C671.028 155.32 666.068 159.04 660.148 161.6C654.308 164.16 647.708 165.44 640.348 165.44Z" fill="#21325D"/>
<path d="M328.764 207.336C327.196 207.336 325.693 207.131 324.256 206.72C322.819 206.291 321.661 205.74 320.784 205.068L322.324 201.652C323.164 202.249 324.153 202.744 325.292 203.136C326.449 203.509 327.616 203.696 328.792 203.696C329.688 203.696 330.407 203.612 330.948 203.444C331.508 203.257 331.919 203.005 332.18 202.688C332.441 202.371 332.572 202.007 332.572 201.596C332.572 201.073 332.367 200.663 331.956 200.364C331.545 200.047 331.004 199.795 330.332 199.608C329.66 199.403 328.913 199.216 328.092 199.048C327.289 198.861 326.477 198.637 325.656 198.376C324.853 198.115 324.116 197.779 323.444 197.368C322.772 196.957 322.221 196.416 321.792 195.744C321.381 195.072 321.176 194.213 321.176 193.168C321.176 192.048 321.475 191.031 322.072 190.116C322.688 189.183 323.603 188.445 324.816 187.904C326.048 187.344 327.588 187.064 329.436 187.064C330.668 187.064 331.881 187.213 333.076 187.512C334.271 187.792 335.325 188.221 336.24 188.8L334.84 192.244C333.925 191.721 333.011 191.339 332.096 191.096C331.181 190.835 330.285 190.704 329.408 190.704C328.531 190.704 327.812 190.807 327.252 191.012C326.692 191.217 326.291 191.488 326.048 191.824C325.805 192.141 325.684 192.515 325.684 192.944C325.684 193.448 325.889 193.859 326.3 194.176C326.711 194.475 327.252 194.717 327.924 194.904C328.596 195.091 329.333 195.277 330.136 195.464C330.957 195.651 331.769 195.865 332.572 196.108C333.393 196.351 334.14 196.677 334.812 197.088C335.484 197.499 336.025 198.04 336.436 198.712C336.865 199.384 337.08 200.233 337.08 201.26C337.08 202.361 336.772 203.369 336.156 204.284C335.54 205.199 334.616 205.936 333.384 206.496C332.171 207.056 330.631 207.336 328.764 207.336ZM345.639 202.52L345.387 197.284L354.767 187.4H359.807L351.351 196.5L348.831 199.188L345.639 202.52ZM341.579 207V187.4H346.087V207H341.579ZM354.991 207L348.019 198.46L350.987 195.24L360.283 207H354.991ZM367.129 207V198.992L368.165 201.736L359.541 187.4H364.357L370.965 198.404H368.193L374.829 187.4H379.281L370.657 201.736L371.665 198.992V207H367.129ZM386.256 207V191.096H379.984V187.4H397.064V191.096H390.792V207H386.256ZM400.904 207V187.4H409.388C411.143 187.4 412.655 187.689 413.924 188.268C415.194 188.828 416.174 189.64 416.864 190.704C417.555 191.768 417.9 193.037 417.9 194.512C417.9 195.968 417.555 197.228 416.864 198.292C416.174 199.337 415.194 200.14 413.924 200.7C412.655 201.26 411.143 201.54 409.388 201.54H403.424L405.44 199.552V207H400.904ZM413.364 207L408.464 199.888H413.308L418.264 207H413.364ZM405.44 200.056L403.424 197.928H409.136C410.536 197.928 411.582 197.629 412.272 197.032C412.963 196.416 413.308 195.576 413.308 194.512C413.308 193.429 412.963 192.589 412.272 191.992C411.582 191.395 410.536 191.096 409.136 191.096H403.424L405.44 188.94V200.056ZM420.318 207L429.054 187.4H433.534L442.298 207H437.538L430.37 189.696H432.162L424.966 207H420.318ZM424.686 202.8L425.89 199.356H435.97L437.202 202.8H424.686ZM445.732 207V187.4H450.268V207H445.732ZM456.319 207V187.4H460.855V203.304H470.683V207H456.319ZM480.976 207.336C479.408 207.336 477.905 207.131 476.468 206.72C475.03 206.291 473.873 205.74 472.996 205.068L474.536 201.652C475.376 202.249 476.365 202.744 477.504 203.136C478.661 203.509 479.828 203.696 481.004 203.696C481.9 203.696 482.618 203.612 483.16 203.444C483.72 203.257 484.13 203.005 484.392 202.688C484.653 202.371 484.784 202.007 484.784 201.596C484.784 201.073 484.578 200.663 484.168 200.364C483.757 200.047 483.216 199.795 482.544 199.608C481.872 199.403 481.125 199.216 480.304 199.048C479.501 198.861 478.689 198.637 477.868 198.376C477.065 198.115 476.328 197.779 475.656 197.368C474.984 196.957 474.433 196.416 474.004 195.744C473.593 195.072 473.388 194.213 473.388 193.168C473.388 192.048 473.686 191.031 474.284 190.116C474.9 189.183 475.814 188.445 477.028 187.904C478.26 187.344 479.8 187.064 481.648 187.064C482.88 187.064 484.093 187.213 485.288 187.512C486.482 187.792 487.537 188.221 488.452 188.8L487.052 192.244C486.137 191.721 485.222 191.339 484.308 191.096C483.393 190.835 482.497 190.704 481.62 190.704C480.742 190.704 480.024 190.807 479.464 191.012C478.904 191.217 478.502 191.488 478.26 191.824C478.017 192.141 477.896 192.515 477.896 192.944C477.896 193.448 478.101 193.859 478.512 194.176C478.922 194.475 479.464 194.717 480.136 194.904C480.808 195.091 481.545 195.277 482.348 195.464C483.169 195.651 483.981 195.865 484.784 196.108C485.605 196.351 486.352 196.677 487.024 197.088C487.696 197.499 488.237 198.04 488.648 198.712C489.077 199.384 489.292 200.233 489.292 201.26C489.292 202.361 488.984 203.369 488.368 204.284C487.752 205.199 486.828 205.936 485.596 206.496C484.382 207.056 482.842 207.336 480.976 207.336ZM509.561 207.336C507.993 207.336 506.49 207.131 505.053 206.72C503.616 206.291 502.458 205.74 501.581 205.068L503.121 201.652C503.961 202.249 504.95 202.744 506.089 203.136C507.246 203.509 508.413 203.696 509.589 203.696C510.485 203.696 511.204 203.612 511.745 203.444C512.305 203.257 512.716 203.005 512.977 202.688C513.238 202.371 513.369 202.007 513.369 201.596C513.369 201.073 513.164 200.663 512.753 200.364C512.342 200.047 511.801 199.795 511.129 199.608C510.457 199.403 509.71 199.216 508.889 199.048C508.086 198.861 507.274 198.637 506.453 198.376C505.65 198.115 504.913 197.779 504.241 197.368C503.569 196.957 503.018 196.416 502.589 195.744C502.178 195.072 501.973 194.213 501.973 193.168C501.973 192.048 502.272 191.031 502.869 190.116C503.485 189.183 504.4 188.445 505.613 187.904C506.845 187.344 508.385 187.064 510.233 187.064C511.465 187.064 512.678 187.213 513.873 187.512C515.068 187.792 516.122 188.221 517.037 188.8L515.637 192.244C514.722 191.721 513.808 191.339 512.893 191.096C511.978 190.835 511.082 190.704 510.205 190.704C509.328 190.704 508.609 190.807 508.049 191.012C507.489 191.217 507.088 191.488 506.845 191.824C506.602 192.141 506.481 192.515 506.481 192.944C506.481 193.448 506.686 193.859 507.097 194.176C507.508 194.475 508.049 194.717 508.721 194.904C509.393 195.091 510.13 195.277 510.933 195.464C511.754 195.651 512.566 195.865 513.369 196.108C514.19 196.351 514.937 196.677 515.609 197.088C516.281 197.499 516.822 198.04 517.233 198.712C517.662 199.384 517.877 200.233 517.877 201.26C517.877 202.361 517.569 203.369 516.953 204.284C516.337 205.199 515.413 205.936 514.181 206.496C512.968 207.056 511.428 207.336 509.561 207.336ZM526.436 202.52L526.184 197.284L535.564 187.4H540.604L532.148 196.5L529.628 199.188L526.436 202.52ZM522.376 207V187.4H526.884V207H522.376ZM535.788 207L528.816 198.46L531.784 195.24L541.08 207H535.788ZM544.503 207V187.4H549.039V207H544.503ZM555.09 207V187.4H559.626V203.304H569.454V207H555.09ZM573.389 207V187.4H577.925V203.304H587.753V207H573.389ZM322.324 241V221.4H331.228C333.356 221.4 335.232 221.811 336.856 222.632C338.48 223.435 339.749 224.564 340.664 226.02C341.579 227.476 342.036 229.203 342.036 231.2C342.036 233.179 341.579 234.905 340.664 236.38C339.749 237.836 338.48 238.975 336.856 239.796C335.232 240.599 333.356 241 331.228 241H322.324ZM326.86 237.276H331.004C332.311 237.276 333.44 237.033 334.392 236.548C335.363 236.044 336.109 235.335 336.632 234.42C337.173 233.505 337.444 232.432 337.444 231.2C337.444 229.949 337.173 228.876 336.632 227.98C336.109 227.065 335.363 226.365 334.392 225.88C333.44 225.376 332.311 225.124 331.004 225.124H326.86V237.276ZM351.029 229.296H360.465V232.824H351.029V229.296ZM351.365 237.36H362.033V241H346.857V221.4H361.669V225.04H351.365V237.36ZM372.649 241L364.193 221.4H369.093L376.485 238.76H373.601L381.105 221.4H385.613L377.129 241H372.649ZM392.821 229.296H402.257V232.824H392.821V229.296ZM393.157 237.36H403.825V241H388.649V221.4H403.461V225.04H393.157V237.36ZM408.834 241V221.4H413.37V237.304H423.198V241H408.834ZM436.324 241.336C434.775 241.336 433.338 241.084 432.012 240.58C430.706 240.076 429.567 239.367 428.596 238.452C427.644 237.537 426.898 236.464 426.356 235.232C425.834 234 425.572 232.656 425.572 231.2C425.572 229.744 425.834 228.4 426.356 227.168C426.898 225.936 427.654 224.863 428.624 223.948C429.595 223.033 430.734 222.324 432.04 221.82C433.347 221.316 434.766 221.064 436.296 221.064C437.846 221.064 439.264 221.316 440.552 221.82C441.859 222.324 442.988 223.033 443.94 223.948C444.911 224.863 445.667 225.936 446.208 227.168C446.75 228.381 447.02 229.725 447.02 231.2C447.02 232.656 446.75 234.009 446.208 235.26C445.667 236.492 444.911 237.565 443.94 238.48C442.988 239.376 441.859 240.076 440.552 240.58C439.264 241.084 437.855 241.336 436.324 241.336ZM436.296 237.472C437.174 237.472 437.976 237.323 438.704 237.024C439.451 236.725 440.104 236.296 440.664 235.736C441.224 235.176 441.654 234.513 441.952 233.748C442.27 232.983 442.428 232.133 442.428 231.2C442.428 230.267 442.27 229.417 441.952 228.652C441.654 227.887 441.224 227.224 440.664 226.664C440.123 226.104 439.479 225.675 438.732 225.376C437.986 225.077 437.174 224.928 436.296 224.928C435.419 224.928 434.607 225.077 433.86 225.376C433.132 225.675 432.488 226.104 431.928 226.664C431.368 227.224 430.93 227.887 430.612 228.652C430.314 229.417 430.164 230.267 430.164 231.2C430.164 232.115 430.314 232.964 430.612 233.748C430.93 234.513 431.359 235.176 431.9 235.736C432.46 236.296 433.114 236.725 433.86 237.024C434.607 237.323 435.419 237.472 436.296 237.472ZM451.829 241V221.4H460.313C462.068 221.4 463.58 221.689 464.849 222.268C466.119 222.828 467.099 223.64 467.789 224.704C468.48 225.768 468.825 227.037 468.825 228.512C468.825 229.968 468.48 231.228 467.789 232.292C467.099 233.356 466.119 234.177 464.849 234.756C463.58 235.316 462.068 235.596 460.313 235.596H454.349L456.365 233.552V241H451.829ZM456.365 234.056L454.349 231.9H460.061C461.461 231.9 462.507 231.601 463.197 231.004C463.888 230.407 464.233 229.576 464.233 228.512C464.233 227.429 463.888 226.589 463.197 225.992C462.507 225.395 461.461 225.096 460.061 225.096H454.349L456.365 222.94V234.056ZM473.464 241V221.4H477.216L485.56 235.232H483.572L491.776 221.4H495.5L495.556 241H491.3L491.272 227.924H492.056L485.504 238.928H483.46L476.768 227.924H477.72V241H473.464ZM505.778 229.296H515.214V232.824H505.778V229.296ZM506.114 237.36H516.782V241H501.606V221.4H516.418V225.04H506.114V237.36ZM521.791 241V221.4H525.543L537.107 235.512H535.287V221.4H539.767V241H536.043L524.451 226.888H526.271V241H521.791ZM549.864 241V225.096H543.592V221.4H560.672V225.096H554.4V241H549.864ZM583.223 241.336C581.711 241.336 580.301 241.093 578.995 240.608C577.707 240.104 576.587 239.395 575.635 238.48C574.683 237.565 573.936 236.492 573.395 235.26C572.872 234.028 572.611 232.675 572.611 231.2C572.611 229.725 572.872 228.372 573.395 227.14C573.936 225.908 574.683 224.835 575.635 223.92C576.605 223.005 577.735 222.305 579.023 221.82C580.311 221.316 581.72 221.064 583.251 221.064C584.949 221.064 586.48 221.363 587.843 221.96C589.224 222.539 590.381 223.397 591.315 224.536L588.403 227.224C587.731 226.459 586.984 225.889 586.163 225.516C585.341 225.124 584.445 224.928 583.475 224.928C582.56 224.928 581.72 225.077 580.955 225.376C580.189 225.675 579.527 226.104 578.967 226.664C578.407 227.224 577.968 227.887 577.651 228.652C577.352 229.417 577.203 230.267 577.203 231.2C577.203 232.133 577.352 232.983 577.651 233.748C577.968 234.513 578.407 235.176 578.967 235.736C579.527 236.296 580.189 236.725 580.955 237.024C581.72 237.323 582.56 237.472 583.475 237.472C584.445 237.472 585.341 237.285 586.163 236.912C586.984 236.52 587.731 235.932 588.403 235.148L591.315 237.836C590.381 238.975 589.224 239.843 587.843 240.44C586.48 241.037 584.94 241.336 583.223 241.336ZM599.95 229.296H609.386V232.824H599.95V229.296ZM600.286 237.36H610.954V241H595.778V221.4H610.59V225.04H600.286V237.36ZM615.963 241V221.4H619.715L631.279 235.512H629.459V221.4H633.939V241H630.215L618.623 226.888H620.443V241H615.963ZM644.036 241V225.096H637.764V221.4H654.844V225.096H648.572V241H644.036ZM662.857 229.296H672.293V232.824H662.857V229.296ZM663.193 237.36H673.861V241H658.685V221.4H673.497V225.04H663.193V237.36ZM678.87 241V221.4H687.354C689.109 221.4 690.621 221.689 691.89 222.268C693.159 222.828 694.139 223.64 694.83 224.704C695.521 225.768 695.866 227.037 695.866 228.512C695.866 229.968 695.521 231.228 694.83 232.292C694.139 233.337 693.159 234.14 691.89 234.7C690.621 235.26 689.109 235.54 687.354 235.54H681.39L683.406 233.552V241H678.87ZM691.33 241L686.43 233.888H691.274L696.23 241H691.33ZM683.406 234.056L681.39 231.928H687.102C688.502 231.928 689.547 231.629 690.238 231.032C690.929 230.416 691.274 229.576 691.274 228.512C691.274 227.429 690.929 226.589 690.238 225.992C689.547 225.395 688.502 225.096 687.102 225.096H681.39L683.406 222.94V234.056Z" fill="#21325D"/>
<path d="M147.916 303.416H135.916C134.508 303.416 133.804 303.96 133.804 305.048C133.804 306.136 134.348 307.064 135.436 307.832C136.812 307.512 138.236 307.352 139.708 307.352C142.492 307.352 144.716 308.024 146.38 309.368C148.076 310.712 148.924 312.36 148.924 314.312C148.924 315.464 148.764 316.376 148.444 317.048H142.924C143.308 316.44 143.5 315.624 143.5 314.6C143.5 313.864 143.148 313.24 142.444 312.728C141.772 312.216 140.812 311.96 139.564 311.96C137.74 311.96 136.332 312.328 135.34 313.064C134.348 313.8 133.852 314.728 133.852 315.848C133.852 317.192 134.428 318.28 135.58 319.112C136.764 319.912 138.604 320.312 141.1 320.312C142.796 320.312 144.924 320.008 147.484 319.4V324.056C144.988 324.6 142.764 324.872 140.812 324.872C136.748 324.872 133.628 323.976 131.452 322.184C129.308 320.36 128.236 318.232 128.236 315.8C128.236 313.336 129.276 311.304 131.356 309.704C129.148 308.424 128.044 306.648 128.044 304.376C128.044 302.648 128.668 301.32 129.916 300.392C131.196 299.464 132.844 299 134.86 299H142.348V295.88H124.204V291.32H152.86V295.88H147.916V303.416ZM151.707 295.88V291.32H182.139V295.88H177.051V323H171.531V310.136H163.035V316.232H158.235L156.699 312.824C155.803 310.808 155.355 309.352 155.355 308.456C155.355 307.08 156.059 306.216 157.467 305.864V295.88H151.707ZM171.531 295.88H163.035V305.576H171.531V295.88ZM209.84 278.936C218.705 278.936 227.777 280.296 237.057 283.016V288.104C227.969 285.192 218.945 283.736 209.985 283.736C206.689 283.736 205.041 285.176 205.041 288.056V291.32H210.129V295.88H205.041V323H199.424V295.88H194.336V291.32H199.424V288.008C199.424 285.288 200.336 283.096 202.161 281.432C203.984 279.768 206.544 278.936 209.84 278.936ZM223.731 306.392H232.755V295.88H224.835V301.88C224.835 303.672 224.467 305.176 223.731 306.392ZM243.459 291.32V295.88H238.371V323H232.755V310.952H225.219C222.723 310.952 220.467 310.808 218.451 310.52L227.331 323H220.563L211.395 309.848V305.816H214.707C217.715 305.816 219.219 304.472 219.219 301.784V295.88H208.995V291.32H243.459ZM284.166 291.32V295.88H279.078V323H273.414V315.848C272.07 316.904 270.39 317.432 268.374 317.432C265.974 317.432 263.958 316.632 262.326 315.032C260.694 313.4 259.878 311.304 259.878 308.744C259.878 306.248 260.726 304.2 262.422 302.6C264.118 301 266.23 300.2 268.758 300.2C269.302 300.2 269.862 300.264 270.438 300.392V304.616C270.278 304.552 269.958 304.52 269.478 304.52C268.198 304.52 267.158 304.936 266.358 305.768C265.59 306.6 265.206 307.656 265.206 308.936C265.206 310.216 265.59 311.24 266.358 312.008C267.126 312.776 268.102 313.16 269.286 313.16C270.502 313.16 271.494 312.808 272.262 312.104C273.03 311.368 273.414 310.328 273.414 308.984V295.88H259.254V302.168C259.254 304.376 258.646 306.168 257.43 307.544C256.214 308.92 254.518 309.784 252.342 310.136L251.814 310.184L261.846 323H255.03L245.238 310.28V305.816H248.694C251.99 305.816 253.638 304.472 253.638 301.784V295.88H242.31V291.32H284.166ZM283.031 295.88V291.32H298.824V295.88H293.735V323H288.119V295.88H283.031ZM327.594 291.32V295.88H323.754V302.12C323.754 304.648 323.018 306.6 321.546 307.976C320.074 309.32 318.138 309.992 315.738 309.992C314.586 309.992 313.658 309.896 312.954 309.704V305.24C313.594 305.4 314.17 305.48 314.682 305.48C315.898 305.48 316.778 305.176 317.322 304.568C317.898 303.96 318.186 303 318.186 301.688V295.88H308.106V310.424C308.106 312.568 308.778 314.168 310.122 315.224C311.466 316.28 313.322 316.808 315.69 316.808C318.282 316.808 320.682 316.296 322.89 315.272V320.36C320.522 321.224 317.978 321.656 315.258 321.656C311.386 321.656 308.282 320.728 305.946 318.872C303.642 317.016 302.49 314.2 302.49 310.424V295.88H297.69V291.32H327.594ZM312.026 286.808C311.386 286.136 311.066 285.32 311.066 284.36C311.066 283.4 311.386 282.6 312.026 281.96C312.666 281.288 313.482 280.952 314.474 280.952C315.434 280.952 316.25 281.288 316.922 281.96C317.594 282.6 317.93 283.4 317.93 284.36C317.93 285.32 317.594 286.136 316.922 286.808C316.25 287.448 315.434 287.768 314.474 287.768C313.482 287.768 312.666 287.448 312.026 286.808ZM327.898 291.32H358.378V295.88H353.29V323H347.722V295.88H341.242V306.488C341.242 308.696 340.634 310.36 339.418 311.48C338.234 312.6 336.634 313.16 334.618 313.16C333.21 313.16 331.882 312.936 330.634 312.488V307.928C331.434 308.344 332.298 308.552 333.226 308.552C334.826 308.552 335.626 307.704 335.626 306.008V295.88H327.898V291.32ZM338.413 284.36V279.608C339.757 279.384 340.845 279.272 341.677 279.272C345.165 279.304 347.837 280.76 349.693 283.64L354.925 291.656H348.877L345.133 286.136C344.205 284.664 342.909 283.928 341.245 283.928C340.349 283.928 339.405 284.072 338.413 284.36ZM359.629 329.048L364.333 317.192H371.005L364.621 329.048H359.629ZM434.923 291.32V295.88H429.835V323H424.219V295.88H416.731V323H411.067V311.336H405.355V311.96C405.355 314.456 404.491 316.488 402.763 318.056C401.067 319.592 398.587 320.36 395.323 320.36C393.051 320.36 390.955 319.992 389.035 319.256V314.024C391.115 315.08 393.131 315.608 395.083 315.608C396.459 315.608 397.611 315.256 398.539 314.552C399.467 313.848 399.931 312.728 399.931 311.192C399.931 308.696 398.219 307.448 394.795 307.448H392.971V302.648H394.459C397.403 302.648 398.875 301.512 398.875 299.24C398.875 297.064 397.611 295.976 395.083 295.976C393.419 295.976 391.787 296.36 390.187 297.128V292.04C391.755 291.432 393.499 291.128 395.419 291.128C398.331 291.128 400.571 291.8 402.139 293.144C403.739 294.456 404.539 296.264 404.539 298.568C404.539 300.232 404.107 301.624 403.243 302.744C402.411 303.864 401.243 304.632 399.739 305.048C401.115 305.24 402.331 305.8 403.387 306.728H411.067V295.88H407.131V291.32H434.923ZM452.874 304.856V295.88H443.754V305.192C443.754 306.952 444.09 308.232 444.762 309.032C445.466 309.8 446.506 310.184 447.882 310.184C449.322 310.184 450.506 309.72 451.434 308.792C452.394 307.832 452.874 306.52 452.874 304.856ZM463.626 291.32V295.88H458.538V323H452.874V312.392C451.402 313.928 449.434 314.696 446.97 314.696C441.05 314.696 438.09 311.464 438.09 305V295.88H433.77V291.32H463.626ZM516.59 295.88H499.022V301.784C500.494 300.408 502.254 299.72 504.302 299.72C507.086 299.72 509.326 300.568 511.022 302.264C512.718 303.96 513.566 306.152 513.566 308.84C513.566 311.752 512.59 314.072 510.638 315.8C508.718 317.528 506.286 318.392 503.342 318.392C502.83 318.392 502.462 318.376 502.238 318.344V313.784C502.43 313.816 502.718 313.832 503.102 313.832C504.542 313.832 505.694 313.384 506.558 312.488C507.454 311.56 507.902 310.376 507.902 308.936C507.902 307.592 507.486 306.472 506.654 305.576C505.854 304.68 504.766 304.232 503.39 304.232C502.142 304.232 501.102 304.68 500.27 305.576C499.438 306.44 499.022 307.56 499.022 308.936V323H493.358V316.856C491.918 318.2 490.158 318.872 488.078 318.872C485.326 318.872 483.086 318.024 481.358 316.328C479.662 314.632 478.814 312.44 478.814 309.752C478.814 306.84 479.774 304.52 481.694 302.792C483.646 301.064 486.094 300.2 489.038 300.2C489.518 300.2 489.886 300.216 490.142 300.248V304.808C489.95 304.776 489.662 304.76 489.278 304.76C487.838 304.76 486.67 305.224 485.774 306.152C484.91 307.048 484.478 308.216 484.478 309.656C484.478 311 484.878 312.12 485.678 313.016C486.51 313.912 487.63 314.36 489.038 314.36C490.254 314.36 491.278 313.928 492.11 313.064C492.942 312.168 493.358 311.032 493.358 309.656V295.88H475.838V291.32H516.59V295.88ZM515.434 295.88V291.32H545.866V295.88H540.778V323H535.258V310.136H526.762V316.232H521.962L520.426 312.824C519.53 310.808 519.082 309.352 519.082 308.456C519.082 307.08 519.786 306.216 521.194 305.864V295.88H515.434ZM535.258 295.88H526.762V305.576H535.258V295.88ZM544.718 295.88V291.32H560.51V295.88H555.422V323H549.806V295.88H544.718ZM589.281 291.32V295.88H585.441V302.12C585.441 304.648 584.705 306.6 583.233 307.976C581.761 309.32 579.825 309.992 577.425 309.992C576.273 309.992 575.345 309.896 574.641 309.704V305.24C575.281 305.4 575.857 305.48 576.369 305.48C577.585 305.48 578.465 305.176 579.009 304.568C579.585 303.96 579.873 303 579.873 301.688V295.88H569.793V310.424C569.793 312.568 570.465 314.168 571.809 315.224C573.153 316.28 575.009 316.808 577.377 316.808C579.969 316.808 582.369 316.296 584.577 315.272V320.36C582.209 321.224 579.665 321.656 576.945 321.656C573.073 321.656 569.969 320.728 567.633 318.872C565.329 317.016 564.177 314.2 564.177 310.424V295.88H559.377V291.32H589.281ZM573.712 286.808C573.072 286.136 572.752 285.32 572.752 284.36C572.752 283.4 573.072 282.6 573.712 281.96C574.352 281.288 575.168 280.952 576.16 280.952C577.12 280.952 577.936 281.288 578.608 281.96C579.28 282.6 579.616 283.4 579.616 284.36C579.616 285.32 579.28 286.136 578.608 286.808C577.936 287.448 577.12 287.768 576.16 287.768C575.168 287.768 574.352 287.448 573.712 286.808ZM589.585 291.32H620.065V295.88H614.977V323H609.409V295.88H602.929V306.488C602.929 308.696 602.321 310.36 601.105 311.48C599.921 312.6 598.321 313.16 596.305 313.16C594.897 313.16 593.569 312.936 592.321 312.488V307.928C593.121 308.344 593.985 308.552 594.913 308.552C596.513 308.552 597.313 307.704 597.313 306.008V295.88H589.585V291.32ZM600.099 284.36V279.608C601.443 279.384 602.531 279.272 603.363 279.272C606.851 279.304 609.523 280.76 611.379 283.64L616.611 291.656H610.563L606.819 286.136C605.891 284.664 604.595 283.928 602.931 283.928C602.035 283.928 601.091 284.072 600.099 284.36Z" fill="#21325D"/>
</svg>
